<?xml version="1.0" encoding="utf-8"?>
<!-- Generator: Adobe Illustrator 26.3.1, SVG Export Plug-In . SVG Version: 6.00 Build 0)  -->
<svg version="1.1" id="Layer_1" xmlns="http://www.w3.org/2000/svg" xmlns:xlink="http://www.w3.org/1999/xlink" x="0px" y="0px"
	 viewBox="0 0 1000 1000" style="enable-background:new 0 0 1000 1000;" xml:space="preserve">
<style type="text/css">
	.st0{ fill: #007B7D; }
</style>
<g>
	<path d="M888.11,252.34c-2.08-0.96-4.37-0.59-6.55-0.3c-8.34,1.21-16.63,2.93-24.7,5.4c-56.76,16.08-112.33,36.49-165.76,61.52
		c-17.24,8.17-36.08,17-53.39,25.06c0,0-3.82,1.78-3.82,1.79c-1.75,0.67-3.67,2.09-5.51,1.71c-1.77-0.71-2.42-3.07-3.54-4.54
		c0,0-4.4-7.22-4.4-7.22c-0.61-1.09-1.5-2.21-1.48-3.45c-0.01-0.97,1.2-1.72,2.39-2.3c12.88-5.6,25.47-11.99,37.62-19.05
		c66.36-39.02,118.1-83.4,151.75-154.04c1.26-2.52,2.5-5.05,3.71-7.59c1.22-2.69,3.48-6.25,1.14-9.03c-2.59-2.39-6.18-2.4-9.44-2.95
		c-8.53-1.01-17.17-0.14-25.59,1c-11.23,1.57-22.28,4.17-33.09,7.47c-53.98,16.64-103.66,47.01-142.79,87.78
		c-11.22,11.52-23.48,25.35-34.23,37.29l-5.63,6.26l-1.39,1.53c-0.42,0.45-0.85,0.85-1.27,1.13c-1.29,0.96-2.79,0.34-4.16-0.36
		c-14.5-7.46-29.98-13.13-46.03-16.16c-16.7-3.1-33.73-3.97-50.66-3.84c-22.57,0.16-45.38,1.5-67.1,8.14
		c-12.22,3.6-24.02,8.72-35.08,15.04c-2.04,1.25-5.09,3.09-7.12,4.12c-4.12,1.81-4.63-3.22-6.32-6.6
		c-3.4-7.81-8.04-15.05-12.82-22.03c-28.16-42.32-66.7-76.89-109.39-104.12c-30.88-19.58-65.15-34.32-101.23-40.85
		c0,0-4.16-0.74-4.16-0.74c-2.14-0.3-4.39-0.97-6.61-0.35c-0.84,0.24-1.61,1-1.92,1.78c-0.63,1.46-0.57,2.95-0.63,4.44
		c-0.16,11.5,4.6,22.29,10.19,32.07l4.07,7.39l4.26,7.28c0,0,2.13,3.64,2.14,3.64c10.83,17.86,23.2,35.53,36.31,51.77l5.4,6.48
		l2.7,3.24c0,0,2.78,3.17,2.78,3.17c4.36,5.07,9.47,10.56,14.19,15.6c6.53,6.71,14.15,14.35,21.11,20.65
		c5.9,5.44,12.8,11.51,19.08,16.63c17.22,14.41,35.84,27.41,55.28,38.62c4.85,2.83,9.77,5.6,14.68,8.29
		c0.94,0.54,2.08,1.24,1.38,2.34c-2.26,3.49-4.83,6.99-6.36,10.92c-6.91,15.58-9.04,32.87-8.18,49.78
		c0.33,5.63,0.76,11.17,0.67,16.79c-0.24,25.38-9.23,49.52-13.76,74.29c-3.53,20.21,0.63,40.18,13.04,56.64
		c5.18,6.76,10.48,13.35,16.55,19.32c1.98,1.81,3.66,3.59,3.16,6.31c-0.83,16.7-3.17,33.45-9.57,48.96
		c-11.23,25.69-25.89,49.59-41.88,72.66c-9.44,14.25-15.16,30.97-16.47,48.02c-0.4,4.67-0.6,9.3-0.88,13.91
		c-4.18-3.13-10.72-7.98-13.48-9.93c-3.8-2.52-7.91-4.5-12.39-5.59c-1.19-0.26-2.47-0.39-3.78-0.24c-2.63,0.21-5.18,2.06-6.42,4.32
		c-0.36,0.61-0.52,0.96-0.76,1.29c-0.64,1-1.31,0.8-2.34,0.39c-2.47-1.16-5.97-0.89-7.85,1.43c-1.68,1.74-1.96,4.04-3.29,5.78
		c-0.48,0.68-1.19,1.15-1.92,1.49c-1.13,0.54-2.26,1.29-3.17,2.34c-2.7,3-2.08,7.4-1.07,10.87c2.19,8.66,6.08,16.84,11.1,24.16
		c10.21,14.34,21.58,27.58,33.16,40.63c14.58,16.09,28.81,33.35,46.88,45.97c12.36,7.95,30.91,12.14,40.83-1.65l0.52-0.67
		c0.11-0.15,0.23-0.29,0.33-0.39c0.22-0.22,0.4-0.32,0.58-0.38c0.19-0.06,0.44-0.07,0.79-0.02c0.19,0.03,0.33,0.06,0.6,0.13
		c5.71,1.45,11.67,2.03,17.53,1.83c6.69-0.18,13.25-1.29,19.74-2.71c1.45-0.27,4.45-1.1,5.59-0.86c0.22,0.05,0.04-0.02,0.15,0.08
		c0.54,1.14,0.55,2.43,0.75,3.83c0,0,0.16,1.61,0.16,1.61c0.24,4.09,2.5,6.38,6.27,5.57c0.36-0.07,0.66-0.18,0.98-0.28l0.78-0.22
		l3.06-0.88c0,0,1.53-0.44,1.53-0.44c2.88-0.93,6.09-1.12,7.63,2.1c0.34,0.59,0.7,1.2,1.26,1.77c5.27,4.93,10.84-2.2,14.46-5.74
		c0.3-0.23,0.5-0.3,0.49-0.29c-0.02,0,0.09-0.01,0.4,0.15c1.43,0.79,3.72,3.2,6.04,4.3c5.23,2.53,7.93-3.43,9.63-7.35
		c0.22-0.46,0.33-0.85,0.56-1.22c0.12-0.23,0.25-0.38,0.32-0.46c0.01,0,0,0,0.01,0c0.16,0.04,0.5,0.22,0.83,0.46
		c0.33,0.23,0.68,0.54,1.16,0.93c1.75,1.53,4.55,3.43,7.17,2.26c2.29-1.22,3.29-3.28,4.44-5.22c0.57-0.99,1.34-1.92,2.42-2.18
		c0.89-0.28,1.85-0.11,2.83-0.24c1.46-0.2,2.67-0.09,4.13-1.07c0.85-0.54,1.48-1.48,1.75-2.26c0.94-2.68,0.23-5.74,0.88-8.25
		c0.23-0.78,0.48-1.16,0.93-1.44c1.24-0.78,3.73-0.68,5.31-0.7c5.88-0.02,16.85-0.08,22.82-0.09c3.8-0.05,8.99-0.11,12.75,0.6
		l1.63,0.22c0,0,0.46,0.06,0.67,0.08c-0.85,2.51-1.92,5.33-0.67,7.95c2.15,4.41,8.77,4.3,10.93,8.29c4.2,8.21,5.88,8.09,14.43,6.56
		c1.74-0.22,2.79-0.15,3.88,1.22c2.95,4.3,6.25,5.77,10.79,3.24c1.15-0.63,1.87-1.13,2.61-1.38c1.41-0.54,2.06,0.1,2.96,1.44
		c2.62,4.88,6.01,6.26,10.64,3.38c0.86-0.57,1.42-0.86,2.22-1.07c0.55-0.1,1.12,0.01,1.88,0.37c5.01,2.99,9.1,1.01,10.85-3.31
		c1.44-2.83,0.92-7.41,1.61-9.83c0.6-2.68,3.04-1.86,4.94-0.87c0.73,0.4,2.07,1.1,2.81,1.52c7.9,4.31,17.01,7.31,26.18,6.44
		c1.52-0.18,3.61-0.48,4.86,0.49c0.89,0.58,1.21,1.6,1.77,2.64c0.56,1.02,1.72,1.89,2.59,2.36c4.09,2.36,8.97,3.48,13.67,3.26
		c13.52-1.06,26.05-7.82,36.76-15.61c28.15-21.07,51.91-47.08,73.75-74.44c5.4-6.91,10.49-14.22,14.43-22.23
		c1.04-2.09,1.86-4.55,1.96-7.07c0.29-6.05-3.34-10.98-5.71-16.08c-0.04-0.09-0.13-0.27-0.24-0.47l-0.31-0.55
		c-0.28-0.36-0.53-0.74-0.93-1.04c-1.68-1.59-4.65-1.19-6.3-0.92c-0.7,0.08-1.27,0.14-1.86,0.07c-0.06-0.02-0.13-0.03-0.19-0.04
		c-0.01,0.01-0.29-0.08-0.43-0.11c-0.98-0.24-1.7-0.26-2.47-0.54c-1.31-0.59-2.75-1-4.21-1.07c-5.07-0.16-9.05,2.24-13.33,4.28
		c-3.97,2.07-7.72,4.46-11.33,7.01c-1.49,1.05-3.24,2.33-4.78,3.48c0.02-0.26,0.05-0.72,0.05-0.72
		c1.37-17.71-2.53-35.81-10.75-51.52c-5.47-10.81-12.14-20.66-17.83-31.22c-0.24-0.46-0.48-0.92-0.65-1.32
		c-0.09-0.17-0.14-0.34-0.18-0.48c3.12-1.35,7.18-2.23,10.47-3.57c9.32-3.37,18.24-7.65,26.96-12.27c8.9-4.19,8.79-8.05,2.82-14.68
		c-2.28-2.85-10.28-12.33-12.5-15.13c-2.17-2.79-4.76-5.4-6.69-8.31l-0.1-0.23c-0.1-0.16-0.07-0.22-0.11-0.28
		c0.03-0.03,0.08-0.07,0.09-0.11c0.14-0.1,0.24-0.2,0.41-0.32c1.28-0.82,2.69-1.36,4.11-2c21.9-9.34,44-19.46,65.55-29.49
		c3.79-1.8,26.51-12.26,29.64-13.75c8.02-3.82,3.35-7.94-0.62-11.73c-27.17-26.69-50.42-57.03-76.52-84.78
		c-0.73-0.8-1.52-1.58-2.13-2.36c-0.15-0.19-0.29-0.39-0.35-0.52c-0.01-0.02-0.01-0.03-0.02-0.04c0.03-0.03,0.07-0.05,0.12-0.08
		c0.19-0.09,0.39-0.19,0.63-0.27c0.94-0.35,2.02-0.64,3.05-0.96c47.69-14.28,96.38-28.31,144.81-39.67
		c4.29-0.78,8.79-2.85,11.05-6.81c1.2-1.9,1.82-4.11,2.31-6.2c11.06-42.1,18.76-85.13,24.66-128.22
		c1.75-12.94,4.06-25.86,4.37-38.95C890.57,256.1,890.23,253.45,888.11,252.34z M548.46,881.56
		C548.46,881.55,548.47,881.55,548.46,881.56C548.45,881.59,548.44,881.6,548.46,881.56z M673.17,714.75
		c8.99,15.57,10.78,34.06,9.64,51.71c0.26,4.03-2.18,5.2-4.89,7.17c-3.42,2.44-6.81,4.91-10.13,7.49
		c-4.98,3.86-9.79,7.96-14.22,12.45c0,0-1.1,1.13-1.1,1.13c-1.16,1.12-2.99,2.08-2.48,4.05c0.44,0.21,0.94,0.32,1.45,0.13
		c0.44-0.17,0.74-0.49,1.02-0.77c0.51-0.56,1.19-0.98,1.8-1.49c0,0,3.75-2.92,3.75-2.92c17.35-13.58,34.66-27.97,54.31-38.08
		c1.43-0.61,2.91-1.28,4.41-1.31c3.84,0.1,4.04,3.96,2.7,6.77c-0.63,1.41-1.59,2.67-2.48,3.98c-3.62,5.19-7.26,10.38-11.4,15.15
		c-2.07,2.38-4.25,4.67-6.59,6.78c-1.47,1.38-3.1,2.64-4.24,4.35c-0.22,0.47,0,1.11,0.36,1.43c0.28,0.32,0.81,0.65,1.36,0.53
		c0.52-0.1,0.87-0.41,1.18-0.67c2.34-2.13,4.84-4.08,7.11-6.33c4.39-4.6,8.08-9.8,11.94-14.84c3.08-3.69,5.55-7.97,6.32-12.77
		c0.47-2.88,2.64-2.79,5.11-2.54c0.83,0.03,1.53,0.06,2.11,0.4c0.56,0.33,0.81,0.98,0.88,1.71c0.26,3.87-1.17,7.68-3.49,10.79
		c-8.05,11.26-16.99,21.86-26.32,32.07c-0.67,0.8-1.78,1.25-2.12,2.36c-0.32,1.35,1.32,2.88,2.6,2.23
		c11.42-11.12,21.37-23.63,30.02-37.04c0,0,1.3-2.02,1.3-2.02c0.35-0.5,0.46-1.2,1.04-1.18c0.56,0.08,0.86,0.38,0.94,1.02
		c0.07,0.61-0.06,1.45-0.15,2.19c-0.45,3.04-1.67,5.93-3.12,8.7c-4.38,8.42-10.8,15.44-16.98,22.61
		c-16.5,19.15-32.74,38.71-52.03,55.12c-9.58,8.2-19.8,15.72-31,21.46c-5.52,2.68-11.24,5.76-17.4,6.37
		c-5.23,0.28-13.34,0.14-15.04-6c-0.75-2.9,0.44-5.9,1.21-8.72c0.93-2.95,2.11-5.93,3.35-8.71c0.27-0.62,0.77-1.36,0.66-2.24
		c-0.02-0.39-0.2-0.85-0.47-1.14c-0.75-0.78-1.63-1.11-2.71-0.92c-0.96,0.21-1.63,1.28-1.83,2c-1.58,4.54-4,8.72-4.74,13.65
		c-0.1,0.79-0.26,2.22-0.86,2.71c-0.67,0.76-2.09,0.99-3.63,1.02c-3.06,0.14-6.14-0.14-9.15-0.79c-6.36-1.2-11.43-4.51-17.48-6.95
		c-0.69-0.24-1.35-0.52-1.75-0.86c-0.38-0.34-0.41-0.38-0.35-0.85c0.12-0.45,0.49-1.05,0.94-1.6l1.48-1.85
		c5.95-7.47,11.41-15.33,16.4-23.48c13.2-21.68,25.16-44.2,34.66-67.81c6.55-17.04,13.34-34.41,15.49-52.65
		c0.03-0.25,0.12-0.63,0.2-1.07c0.07-0.45,0.19-0.96,0.04-1.78c-0.35-1.84-2.76-2.74-4.32-1.67c-1.07,0.81-1.35,2.13-1.41,3.29
		c-0.2,1.47-0.43,3.08-0.7,4.61c-4.71,28.02-17.1,54.07-29.34,79.49c-11.56,23.29-25.1,45.66-41.41,65.93
		c-3.04,3.61-4.66,8.32-4.72,13.02c-0.03,0.34-0.06,0.7-0.12,1c-0.05,0.42-0.21,0.8-0.28,0.95c-0.01,0-0.01,0-0.02,0
		c-0.53-0.09-0.98-0.28-1.49-0.57l-1-0.58c-0.78-0.44-1.68-0.86-2.77-1.06c-1.09-0.2-2.36-0.04-3.36,0.45
		c-4.05,2.75-3.67,3.28-5.57,0.87c-0.95-1.52-1.8-2.93-3.36-4.18c-5.51-4-9.59,4.48-12.79,1.03c-0.9-1.15-2.06-3-3.72-3.76
		c-3.51-1.78-6.84-0.13-10.26,0.24c-0.66,0.05-1.19,0-1.52-0.14c-0.32-0.13-0.63-0.4-0.99-0.91c-0.35-0.48-0.68-1.14-1.01-1.81
		c0,0-0.99-2.18-0.99-2.18c-0.81-1.76-2.53-3.23-4.21-3.99c-2.09-1.07-4.68-1.61-5.92-3.16c0-0.52,0.35-1.07,0.84-1.74
		c0.41-0.56,0.88-1.08,1.41-1.7c8.58-9.4,3.81-22.45,1.84-33.41c-11.05-52.85,2.44-114.26,19.35-164.74
		c0.44-1.06,0.15-2.84-0.56-3.74c0,0-1.52-2.27-1.52-2.27c-4.39,6.72-6.58,14.72-9.29,22.02c-16.43,48.1-24.69,108.59-12.9,158.47
		c1.17,4.35,1.58,8.79,1.24,13.25c-0.11,0.98-0.42,1.67-0.84,1.91c-0.45,0.3-1.34,0.37-2.4,0.2c-2.32-0.3-4.64-0.58-6.96-0.79
		c-12.81-1.24-25.81-1.08-38.51,1.1c-0.55,0.09-0.97,0.13-1.33,0.1c-0.39-0.04-0.45-0.12-0.51-0.19c-0.07-0.09-0.17-0.43-0.17-0.88
		c-0.01-0.44,0.06-0.97,0.13-1.52c0,0,0.52-3.44,0.52-3.44c1.57-10.75,3.68-23.67,5.2-34.42c1.74-13.88,2.01-27.93,1.46-41.88
		c-0.82-18.59-2.55-37.11-5.36-55.51c-2.66-16.64-6-33.39-12.63-48.98c-0.59-1.19-0.65-2.31-1.62-3.46c-0.57-0.65-1.4-0.99-2.1-1.12
		l-1.35-0.26l0.07,1.37c0.16,3.24,1.22,6.23,2.09,9.07c2.47,8.68,4.65,17.5,6.51,26.35c7.3,35.44,10.6,71.92,7.55,108.04
		c-0.96,12.07-2.73,23.99-4.69,35.95c-1.16,7.46-1.8,15.21-0.63,22.77c0.05,0.65-0.05,1.28-0.33,1.61
		c-0.44,0.54-1.66,0.57-2.44,0.34c-2.91-0.72-6.21,0.55-7.58,3.24c-1.5,3.04-2.31,4.81-5.57,2.15c-3.28-2.84-6.11-2.79-8.47,1.23
		c-1.17,1.96-1.99,3.99-3.43,5.66c-0.47,0.44-0.72,0.55-1.28,0.34c-0.55-0.19-1.16-0.64-1.73-1.06c-2-1.33-3.31-3.52-6.22-3.54
		c-1.83,0.09-3.09,1.51-4.19,2.67c-1.53,1.53-3.06,3.22-4.88,4.38c-1.28,0.76-2.2-0.11-3.17-0.98c-3.09-3.46-5.73-5.1-10.57-3.77
		c0,0-5.75,1.18-7.62,1.57c0.43-1.22,0.74-2.5,0.84-3.82c0.55-5.53-3.75-9.83-7.82-12.86c-5.4-3.89-9.84-8.87-13.85-14.19
		c-21.73-29.35-41.06-61.92-47.83-98.24c-0.42-2.01-1.07-5.44-1.64-7.45c-0.42-1.27-1.39-2.31-2.17-3.36
		c-0.61,2.92-0.98,5.93-0.85,8.91c0.4,7.58,2.7,14.9,4.77,22.15c2.97,9.61,6.67,18.99,11.02,28.04
		c10.01,20.22,21.89,39.71,36.52,56.95c3.3,3.8,6.74,7.54,10.66,10.74c0.87,0.88,2.48,1.56,2.99,2.6c-0.33,0.3-1.27,0.53-1.9,0.64
		c-12.16,2.68-24.68,4.52-37,2.36c-1.2-0.19-2.35-0.49-3.14-1.16c-1.84-1.69-0.68-4.22-0.6-6.56c0.22-3.84-0.72-7.67-1.67-11.32
		c0,0-0.47-1.82-0.47-1.82c-0.19-0.76-0.33-1.47-1.06-2.07c-0.46-0.32-1.05-0.34-1.44-0.25c-0.38,0.09-0.83,0.22-1.22,0.65
		c-0.38,0.45-0.42,1.03-0.38,1.4c0.49,2.78,0.92,5.52,1.34,8.38c0.4,2.44,0.79,4.83,0.37,7.27c-0.66,4.86-3.89,8.91-7.64,11.92
		c-0.88,0.74-1.92,1.21-3.05,1.41c-6.07,0.57-12.39-0.24-18.08-2.4c-4.65-1.75-8.73-4.51-12.43-7.84
		c-11.39-9.77-21.75-20.66-31.86-31.76c-13.49-14.79-26.93-29.66-38.73-45.85c-2.84-3.96-5.95-8.09-8.39-12.32
		c-2.63-4.82-3.84-10.35-3.92-15.85l-0.01-0.92c0-0.32-0.01-0.68-0.03-0.97c-0.03-0.6,0.01-1.14,0.15-1.36
		c0.17-0.28,0.51-0.34,0.85-0.38c0.2-0.02,0.26,0.03,0.28,0.04c0.03,0.01,0.11,0.12,0.17,0.34c1.57,6.69,5.4,13.02,9.32,18.63
		c4.21,5.96,9.72,11.91,14.6,17.31l0.64,0.7c0.24,0.25,0.5,0.54,0.97,0.8c0.43,0.28,1.3,0.33,1.78,0.04
		c0.51-0.28,0.77-0.53,1.08-0.98c1.08-1.58-0.76-3.14-1.6-4.29c-2.89-4.03-6.67-7.59-9.8-11.41c-5.25-6.69-9.85-14.33-12.54-22.41
		c-0.26-1.16,0.03-2.45-0.07-3.56c-0.02-1.23,0.05-2.34,0.55-2.94c2.4-2.26,6.23-0.59,7.45,2.35c3.39,9.54,8.69,18.32,15.13,26.1
		c3.6,4.41,7.52,8.52,11.49,12.55c0.42,0.36,0.99,1.54,1.85,1.94c0.27,0.15,0.7,0.26,1.09,0.21c0.82-0.14,1.18-0.54,1.52-0.9
		c0.36-0.39,0.62-1.13,0.51-1.74c-0.09-0.61-0.34-1.01-0.57-1.35c-5.02-5.66-9.76-11.4-14.11-17.59
		c-4.2-6.07-8.61-12.18-11.57-18.93c-1.24-3.05-0.92-6.87,2.03-8.34c3.3-1.15,6.34,1.2,9.41,2.76
		c14.91,8.83,28.16,20.74,40.89,32.51c1.46,1.29,2.6,2.35,4.09,3.87c0.66,0.72,2.06,1.29,3.1,0.78c0.81-0.38,1.45-1.01,1.7-1.89
		c0.51-2.19-1.8-3.21-3.04-4.42c-6.13-5.42-11.6-11.42-18.12-16.5c0,0-1.5-1.14-1.5-1.14c-0.76-0.57-1.29-1.29-1.43-2.18
		c-0.02-0.21-0.03-0.42-0.01-0.64l0.08-0.93c1.4-17.22,3.51-34.86,11.11-50.56c4.33-8.82,10.68-16.64,15.98-25.26
		c15.86-25.37,32.88-51.52,38.98-81.38c1.93-8.83,2.64-17.85,3.03-26.85c20.05,16.28,42.42,29.63,66.02,40.09c0,0,1.6-3.03,1.6-3.03
		c-21.93-13.51-44.92-25.83-63.77-43.47c12.31-3.31,22.81-11.7,29.03-22.92c5.73-9.7,7.43-21.73,4.41-32.61
		c-2.41-9.13-7.5-17.42-13.79-24.39c-11.83-13.14-30.35-19.79-47.09-12.12c-1.94,0.77-3.81,1.67-5.67,2.61
		c1.09-5.87,2.06-11.72,3.42-17.41c0.72-3.02,2.02-7.63,2.59-10.59c4.79-21.43,5.35-43.55,3.54-65.35
		c-0.56-17.43,7.38-35.12,17.38-49.1c3.17-4.24,6.82-8.19,10.66-11.82c1.5-1.29,3.14-2.91,3.92-4.94c0,0,0.53-1.43,0.53-1.43
		c-1.58-1.15-3.07-2.42-5.26-1.29c-0.43,0.24-0.71,0.51-0.92,0.71c-0.45,0.46-0.47,0.47-0.9,0.83l-1.02,0.86
		c-3.5,2.96-7.1,5.99-9.87,9.73c-0.71,0.94-1.74,2.48-2.88,2.71c-1.94,0.39-4.13-1.42-5.86-2.36c-3.07-1.82-6.12-3.68-9.15-5.57
		c-30.36-18.81-58.53-41-84.2-65.8l-3.87-3.71c-1.31-1.24-2.44-2.36-3.1-3.58c-9.8-30.31-20.94-60.72-23.3-92.69
		c-0.5-5.75-0.63-12.26-0.56-17.67c19.09,8.2,37.42,18.44,54.7,29.98c45.64,30.95,84.65,72.1,112,120.07
		c1.66,2.58,3.11,6.9,6.82,6.98c3.49-0.23,5.55-2.13,8.38-3.39c3.17-1.63,6.35-3.26,9.56-4.81c12.73-6.21,25.93-11.62,39.8-14.54
		c20.89-4.19,42.35-5.72,63.66-5.16c14.17,0.47,28.5,1.35,42.45,3.91c15.9,2.73,30.55,9.2,44.83,16.62
		c0.96,0.36,2.11,0.71,3.47,0.62c2.5-0.22,4.23-1.77,5.77-3.36c1.64-1.74,3.75-4.05,5.49-6c10.8-11.89,21.71-23.69,33.62-34.46
		c9.32-8.36,20.14-14.57,30.14-22.19c16.46-12.19,34.66-27.19,52.79-36.39c16.44-8.74,34.27-15.39,51.57-22.53
		c0,0,0.69-0.28,1.01-0.41c-2.52,29.2-8.61,58.08-18.48,85.7c-1.07,3.44-1.76,6.76-3.43,9.89c-4.76,9.56-14.4,15.1-22.66,21.39
		c-17.34,12.59-35.34,24.33-54.14,34.61c-6.27,3.42-12.61,6.72-19.05,9.79c-2.51,1.01-6.52,3.66-8.99,2.89
		c-1.05-0.39-2.1-1.92-3.01-3.34c-0.59-0.91-1.25-2.25-2.33-3.05c-0.27-0.21-0.68-0.43-1.2-0.51c-0.54-0.09-1.11,0.09-1.5,0.33
		c-0.69,0.4-1.38,1.28-1.35,2.15c-0.01,0.53,0.15,0.91,0.3,1.24c0.32,0.63,0.67,1.01,0.99,1.37c0.31,0.35,0.62,0.68,0.79,0.91
		c0.06,0.07,0.22,0.33,0.33,0.5c0,0,0.36,0.57,0.36,0.57c6.46,10.28,14.87,20.52,18.73,32.16c6.74,20.35,6.36,42.24,6.38,63.48
		c0.03,6.71-0.36,14.95,0.88,21.62c1.19,7.18,3.41,14.07,5.61,20.88c2.19,6.37,3.67,12.91,4.42,19.57
		c-0.22-0.12-0.45-0.28-0.76-0.54c-5.31-3.32-11.35-5.68-17.64-6.17c-9.53-0.93-18.34,3.71-26.2,8.56
		c-4.05,2.67-7.94,5.68-11.31,9.2c-16.88,17.01-22.61,51.47,1.19,65.11c6.97,4.01,15.24,5.26,23.17,4.43
		c1.79-0.22,3.5-0.45,5.27-0.87c0.57-0.19,1.02-0.27,1.46-0.22c-4.85,6.59-10.41,12.65-16.53,18.08
		c-19.08,16.99-42.82,27.32-66.34,36.69c0,0,0.24,0.74,0.24,0.74c22.98-6.15,45.46-15.51,64.38-30.16
		c6.19-4.77,11.97-10.06,17.28-15.78c0.54,1.32,0.88,2.72,1.08,4.15c2.32,23.85,9.09,47.16,18.19,69.28
		C647.43,670.54,660.53,692.58,673.17,714.75z M627.36,599c-0.32-0.62-0.55-2.46-0.7-3.2c-0.42-2.49-0.77-4.99-1.07-7.5
		c-0.56-4.21-1.31-10.9-1.75-15.12l-0.18-1.76c-0.06-1.54,0.69-2.54,1.71-3.98c3.8-5.17,7.4-10.5,10.91-15.87
		c1.32-1.57,2.41-5.62,5.05-4.05c9.32,5.5,17.74,12.4,26.68,18.45c1.7,1.15,4.71,3.18,7.04,4.72c-3.54,2.46-7.03,4.98-10.61,7.38
		c-10.57,7.22-22.05,12.95-33.13,19.32c-0.84,0.47-2.27,1.37-3.12,1.75c-0.41,0.18-0.75,0.18-0.69,0.15c0.01,0,0.06,0.03,0.04-0.01
		C627.5,599.26,627.44,599.14,627.36,599z M886.4,260.01c-3.24,23.09-7.4,56.4-11.06,79.23c-3.11,18.93-8.42,39.84-12.8,58.57
		c-1.12,4.79-3.56,14.68-4.72,19.44l-1.13,4.89l-0.53,2.46c-0.17,0.8-0.34,1.52-0.61,2.23c-0.99,2.91-3.3,4.78-6.25,5.51l-9.7,2.23
		c-47.1,10.95-93.79,23.94-140.03,38.05c-3.62,1.15-9.85,3-7.09,8.09c2.94,4.48,6.88,7.48,10.33,11.39
		c22.76,24.31,43.08,50.96,67.07,74.18c1.1,1.12,4.31,4.22,5.29,5.28c0.53,0.57,1.13,1.24,1.27,1.71c0.06,0.23,0.08,0.24-0.11,0.46
		c-0.77,0.74-1.91,1.22-2.95,1.7c-20.36,9.35-57.01,25.82-77.46,35.02l-9.13,4.09c-3.13,1.4-5.86,3.39-8.85,4.6
		c-1.48,0.62-3.04,1.01-4.61,1.12c-0.46,0.04-1.11,0.13-1.62,0.62c-0.51,0.52-0.6,1.24-0.54,1.76c0.53,2.74,2.9,4.37,4.35,6.49
		c0.83,1.14,1.98,2.39,1.56,3.78c-0.13,0.43-0.68,1.1-1.1,1.14c-0.53,0.11-1.84-1.31-2.59-1.73c-2.08-1.38-9.21-6.31-11.37-7.74
		c-1.52-1.15-3.71-2.42-5.56-0.76c-0.88,0.61-1.39,2.05-1.14,3.08c0.18,1.03,0.55,1.78,0.8,2.54c0,0,1.42,3.89,2.43,6.65
		c-1.81-1.14-3.79-2.39-3.79-2.39l-3.13-1.98c-1.19-0.75-2.8-1.92-4.37-1.2c-0.92,0.44-1.51,1.06-1.82,2.04
		c-0.28,1.03,0.06,1.93,0.34,2.55l1.72,3.34c0,0,1.63,3.16,2.57,4.99c-1.1,0.08-2.23,0.18-3.4,0.43c-1.72,0.36-3.47,1.26-4.71,2.56
		c-0.05-0.07-0.09-0.14-0.13-0.23c-0.07-0.14-0.14-0.29-0.2-0.45l-0.23-0.59c-4.66-12.05-8.93-24.33-12.04-36.86
		c-0.31-1.17-0.56-1.96,0.72-2.77c-0.1,0.01,18.96-11.24,19.37-11.5c5.78-3.44,20.32-12.03,25.96-15.39
		c2.32-1.52,5.91-3.07,7.79-5.26c3.55-4.73-3.96-8.03-6.9-10.49c-8.03-5.59-17.36-10.94-25.93-15.74c0,0-4.38-2.48-4.38-2.48
		c-2.38-1.35-2.39-1.58-1.45-3.35c16.57-27.65,7.87-58.15-0.66-86.79c-1.72-6.32-3.89-12.53-4.03-19.13
		c-0.21-4.75,0.25-10.07,0.34-14.94c0.21-8.38,0.22-16.94-0.31-25.32c-0.72-11.83-2.58-23.72-6.14-35.07
		c-0.55-2.11-1.47-4.22-1.18-6.17c0.11-0.54,0.98-1.24,1.6-1.58c2.19-1.32,9.81-4.71,12.25-5.91
		c72.68-34.01,146.06-68.57,224.24-87.95c3.25-0.8,6.52-1.54,9.79-2.29c1.58-0.33,3.28-0.82,4.84-0.43c0.77,0.2,1.12,0.97,1.18,1.77
		C886.58,258.35,886.5,259.19,886.4,260.01z"/>
	<path d="M359.81,393.66c-13.66-0.28-28.58,5.5-34.76,18.5c-9.63,19.29,2.87,44.46,22.94,50.66c15.96,4.23,34.45-3.54,41.88-18.51
		C401.18,421.57,385.44,393.98,359.81,393.66z M365.92,430.66c-9.15,0.1-13.81-10.67-11.97-18.55c2.34-9.48,14.51-10.01,20.43-3.58
		C381.6,415.78,376.45,430.53,365.92,430.66z"/>
	<path d="M565.16,462.33c20.11,0.04,36.18-13.26,35.29-34.22c-0.94-17.36-16.31-34.68-33.99-35.63
		c-26.72-1.08-46.21,23.77-34.34,48.89C538.13,453.63,551.28,463.01,565.16,462.33z M555.84,403.39
		c8.76,0.12,14.04,10.69,11.91,18.4c-2.69,9.14-14.6,9.84-20.52,3.5C540.19,418.05,545.42,403.47,555.84,403.39z"/>
	<path d="M521.57,497.51c-12.55,13.57-28.78,5.82-42.4-1.52c-3.43-1.92-6.54-4.06-9.83-6.27c-1.37-0.84-2.7-1.67-4.52-1.71
		c-3.18,0.11-5.33,2.59-7.68,4.23c-2.05,1.55-4.19,2.97-6.42,4.26c-8.78,4.9-19.35,8.95-29.51,6.96
		c-5.92-1.15-10.81-4.97-14.69-9.44c0.12,2.3-0.05,4.83,1.09,7c0.7,1.45,1.87,2.65,3.11,3.52c7.21,5.24,16.69,5.87,25.22,4.35
		c5.72-1.03,11.18-3.15,16.24-5.84c2.53-1.35,4.98-2.83,7.34-4.41c1.64-1.06,3.01-2.19,4.71-2.61c2.59-0.25,4.86,2.24,7.79,3.84
		c4.86,2.99,10.01,5.5,15.38,7.41c8.22,3.13,17.15,4.37,25.24,0.4c2.6-1.18,5.01-2.7,7.24-4.41c2.72-1.89,4.41-4.14,3.78-7.61
		C522.98,496.31,522.25,496.82,521.57,497.51z"/>
	<path d="M457.89,458.66c5.83,2.59,9.13,4.76,14.91,0.12c1.66-1.71,2.04-4.26,0.81-6.18c-1.38-1.71-3.41-2.74-5.52-3.13
		c-2.86-0.37-4.87-0.6-7.73-0.39c-1.56,0.18-3.26,0.48-4.52,1.74C453.36,453.18,454.99,457.74,457.89,458.66z"/>
</g>
</svg>
